<?xml version="1.0" encoding="UTF-8"?>
<svg version="1.1" xmlns="http://www.w3.org/2000/svg" width="512" height="512">
<path d="M0 0 C4.17298495 0.76775972 7.66979111 2.02998542 11.5625 3.74609375 C12.90639135 4.33291776 14.25039115 4.91949343 15.59448242 5.50585938 C16.30865326 5.81934326 17.0228241 6.13282715 17.75863647 6.45581055 C39.95354972 16.17690755 62.43501216 25.17816236 85 34 C86.29514526 34.50657135 86.29514526 34.50657135 87.61645508 35.02337646 C108.01072361 42.98441718 128.56056433 50.33507722 149.375 57.125 C150.33155487 57.43746674 151.28810974 57.74993347 152.27365112 58.0718689 C164.43514185 62.03027779 176.64688678 65.68723182 189 69 C189.0093457 69.9472998 189.01869141 70.89459961 189.02832031 71.87060547 C189.07268795 75.43089099 189.13445614 78.99003553 189.20751953 82.54980469 C189.23551075 84.08192166 189.25683246 85.61417718 189.27099609 87.14648438 C189.36792928 97.04659381 189.46922695 106.37931932 195.96484375 114.4375 C196.61582031 114.953125 197.26679688 115.46875 197.9375 116 C198.58589844 116.53625 199.23429688 117.0725 199.90234375 117.625 C204.58958989 120.69745929 208.54129661 121.25920601 214.11010742 121.30639648 C215.15512421 121.31888176 215.15512421 121.31888176 216.22125244 121.33161926 C218.51604878 121.35563929 220.81056016 121.36448305 223.10546875 121.37109375 C224.71104513 121.38006882 226.31662069 121.38919082 227.92219543 121.39845276 C231.28709947 121.41492548 234.65190424 121.42263926 238.0168457 121.42553711 C242.30619953 121.43090767 246.59460569 121.46853909 250.88369274 121.51428127 C254.20137337 121.54418913 257.51883004 121.55126368 260.83663368 121.55226326 C262.41654088 121.55644132 263.99645026 121.56877756 265.57622337 121.58978081 C275.86553633 121.71564887 284.66719931 121.19606221 292.4375 113.625 C296.09176589 107.48583331 297.44992941 102.71383076 297.51171875 95.66015625 C297.52966995 94.89319931 297.54762115 94.12624237 297.56611633 93.33604431 C297.6198448 90.91158374 297.65399275 88.48731568 297.6875 86.0625 C297.72070634 84.40817654 297.75519902 82.75387838 297.79101562 81.09960938 C297.87554886 77.06654607 297.94253679 73.03353612 298 69 C298.84554443 68.77038574 299.69108887 68.54077148 300.56225586 68.30419922 C358.61339304 52.41880682 414.76126512 30.43510407 469.90673828 6.4375 C470.8703981 6.01927979 471.83405792 5.60105957 472.82691956 5.17016602 C474.67588265 4.36573129 476.52278418 3.55653659 478.36729431 2.74194336 C479.19362869 2.38237549 480.01996307 2.02280762 480.87133789 1.65234375 C481.59817276 1.33257568 482.32500763 1.01280762 483.0738678 0.68334961 C485 0 485 0 488 0 C488.07020867 24.0095762 488.12304617 48.01913692 488.15543652 72.02879524 C488.17087839 83.17792323 488.19191652 94.32698728 488.22631836 105.47607422 C488.25630292 115.19826041 488.27559446 124.92040027 488.28226548 134.64263141 C488.28616243 139.7862585 488.29526456 144.9297531 488.31719017 150.07333755 C488.33769863 154.92421524 488.34380504 159.77490705 488.33932304 164.62582397 C488.34014187 166.39699186 488.34602134 168.1681666 488.35761642 169.93929672 C488.47509404 188.82557781 486.00657725 205.52100717 472.34765625 219.75 C457.95885525 233.54026518 443.3496439 236.31215249 423.99636841 236.26069641 C422.37936664 236.26372053 420.76236629 236.26761132 419.14536846 236.27228898 C414.72168754 236.28254404 410.29808789 236.28039353 405.87440038 236.27610838 C401.0958337 236.27363664 396.31728636 236.28266088 391.53872681 236.29014587 C382.18473246 236.30288228 372.83076684 236.3046879 363.47676529 236.30234561 C355.87222133 236.30056116 348.26768608 236.30231481 340.66314316 236.30657005 C339.58002113 236.30716524 338.49689909 236.30776043 337.38095518 236.30837366 C335.1804553 236.30958543 332.97995541 236.31079957 330.77945553 236.31201603 C310.15246638 236.32288743 289.52549359 236.32073093 268.89850353 236.31463119 C250.03790124 236.309462 231.1773506 236.32071825 212.31675853 236.33972941 C192.93892646 236.35911183 173.56111883 236.36736312 154.18327701 236.36360615 C143.30880399 236.36169478 132.43437493 236.36417555 121.55990982 236.37832069 C112.302692 236.39024058 103.04554521 236.39163251 93.7883264 236.37953053 C89.06785297 236.37364624 84.34750942 236.37253002 79.62704468 236.38453293 C75.30044392 236.39540626 70.97408125 236.39227117 66.64749156 236.37827124 C65.08769507 236.37562832 63.52787982 236.37797807 61.96810175 236.38600711 C44.33757373 236.47041592 29.26655304 232.85966638 16.25 220.34375 C1.46889171 204.9467622 -0.31581827 188.14878831 -0.22705078 167.67700195 C-0.22648576 165.84289048 -0.226805 164.00877857 -0.22793579 162.17466736 C-0.22850676 157.22502316 -0.21679404 152.27547702 -0.20278788 147.32585549 C-0.1902377 142.14222483 -0.18910665 136.95859163 -0.18673706 131.77494812 C-0.18053485 121.97215316 -0.16414114 112.16940311 -0.14403808 102.36662787 C-0.1216398 91.20093251 -0.11067579 80.03523494 -0.10064721 68.86952269 C-0.07977375 45.91299028 -0.04462236 22.95649767 0 0 Z " fill="#3C97FF" transform="translate(12,238)"/>
<path d="M0 0 C2.00768641 -0.00202701 4.0153721 -0.00494362 6.02305603 -0.00869751 C10.20595392 -0.01309038 14.38865805 -0.00678794 18.5715332 0.00732422 C23.89576401 0.02442528 29.21954125 0.01454946 34.54375553 -0.00339317 C38.68166945 -0.01430416 42.81947823 -0.01075153 46.95739555 -0.0030098 C48.91912326 -0.00102852 50.88086096 -0.00339291 52.84257698 -0.01044846 C76.08150243 -0.07572603 96.00754941 4.48964705 113.65234375 20.5859375 C130.66336784 38.95107296 133.04172352 61.01681179 132.9453125 84.96875 C132.9418574 86.46883067 132.93872169 87.96891212 132.93591309 89.46899414 C132.92840538 93.11215818 132.91657618 96.75529279 132.90234375 100.3984375 C134.5160788 100.38844475 134.5160788 100.38844475 136.16241455 100.37825012 C146.34221599 100.31721555 156.5219799 100.27235809 166.70192337 100.24300098 C171.93449835 100.22740042 177.16692463 100.20626547 182.39941406 100.17211914 C187.45689082 100.13932457 192.51422528 100.12154239 197.57180023 100.11380577 C199.49333686 100.10829813 201.41486644 100.09754387 203.33634186 100.08124733 C222.2203677 99.92757726 238.40686322 102.35219931 252.6484375 115.9765625 C265.37408144 129.65056466 268.25473525 143.80608568 268.02734375 161.9609375 C268.0172911 163.36522797 268.0081693 164.76952543 268 166.17382812 C267.97657468 169.58221235 267.94377121 172.9902325 267.90234375 176.3984375 C212.34809828 200.35042966 156.56592044 223.93047609 98.83984375 242.2109375 C98.00385651 242.47636353 97.16786926 242.74178955 96.30654907 243.01525879 C93.95356869 243.75959183 91.5984937 244.49674032 89.2421875 245.23046875 C88.540867 245.45162857 87.83954651 245.67278839 87.11697388 245.90065002 C84.25913682 246.78049699 81.91270394 247.3984375 78.90234375 247.3984375 C78.88816406 246.35945312 78.87398438 245.32046875 78.859375 244.25 C78.60227976 235.09675032 78.16120156 226.55922803 71.2265625 219.75390625 C65.66644403 215.4759437 59.92090423 214.15216814 52.95410156 214.10791016 C52.28653839 214.10119293 51.61897522 214.09447571 50.93118286 214.08755493 C48.73920095 214.06866478 46.54752684 214.06465502 44.35546875 214.0625 C42.81858193 214.05606461 41.28169632 214.0493357 39.74481201 214.04232788 C36.52711145 214.03037668 33.30951805 214.0266447 30.09179688 214.02783203 C25.99203913 214.02803482 21.89297769 214.0007653 17.79338455 213.96628761 C14.61896686 213.94391883 11.44471392 213.93999756 8.27022552 213.94105148 C6.76011512 213.93870926 5.24999922 213.9299644 3.73996735 213.91438675 C-10.05954211 213.77267515 -10.05954211 213.77267515 -21.99310303 220.04336548 C-29.46975871 227.82556824 -29.67986225 237.14087451 -30.09765625 247.3984375 C-39.96087799 245.1225838 -49.54479007 242.15757659 -59.16015625 239.0234375 C-60.37206635 238.62895416 -60.37206635 238.62895416 -61.60845947 238.22650146 C-106.65359773 223.51701008 -150.87580677 205.69195811 -194.24560547 186.64355469 C-197.28383643 185.31715699 -200.3316569 184.01512525 -203.3828125 182.71875 C-204.88013916 182.08223511 -204.88013916 182.08223511 -206.40771484 181.43286133 C-208.26298649 180.6450084 -210.11874491 179.85830029 -211.97509766 179.07299805 C-213.17078369 178.56313354 -213.17078369 178.56313354 -214.390625 178.04296875 C-215.08696045 177.74753174 -215.7832959 177.45209473 -216.50073242 177.14770508 C-218.09765625 176.3984375 -218.09765625 176.3984375 -219.09765625 175.3984375 C-220.60695826 154.91995334 -219.26265196 134.49715564 -205.78515625 117.9609375 C-195.93170835 107.69052856 -181.98657985 100.54632827 -167.63658142 100.15792847 C-166.0597268 100.15223337 -164.48280705 100.15721162 -162.90600586 100.17138672 C-162.03662384 100.17109467 -161.16724182 100.17080261 -160.27151489 100.17050171 C-157.43090426 100.17188221 -154.59056415 100.18738242 -151.75 100.203125 C-149.7674626 100.20685969 -147.78492334 100.20970451 -145.80238342 100.21170044 C-140.6090883 100.21930099 -135.41590679 100.23891844 -130.22265625 100.2611084 C-124.91342709 100.28164425 -119.60417939 100.29071865 -114.29492188 100.30078125 C-103.89578369 100.32216795 -93.49672945 100.35626029 -83.09765625 100.3984375 C-83.11860352 99.27050781 -83.13955078 98.14257812 -83.16113281 96.98046875 C-83.23461773 92.71627974 -83.27984193 88.45214409 -83.31738281 84.1875 C-83.33725522 82.35667449 -83.36436288 80.52591032 -83.39941406 78.6953125 C-83.83474923 55.34086119 -78.68318939 36.67578097 -62.34765625 19.2734375 C-44.76793367 2.23567169 -23.18302599 -0.0834806 0 0 Z M-38.28515625 45.8984375 C-52.33516661 62.48205629 -47.09765625 77.79928046 -47.09765625 100.3984375 C0.09234375 100.3984375 47.28234375 100.3984375 95.90234375 100.3984375 C98.52109893 70.14066838 98.52109893 70.14066838 87.08984375 45.8984375 C75.33832868 35.33084373 60.58670499 36.09208584 45.6796875 36.1328125 C43.9257451 36.13146211 42.17180307 36.12951848 40.41786194 36.12701416 C36.75925092 36.12408125 33.10073818 36.12830163 29.44213867 36.13769531 C24.77662565 36.14909721 20.11134262 36.142514 15.44583797 36.13055038 C11.829659 36.12328926 8.21353366 36.12563901 4.59735298 36.13080597 C2.87793512 36.13213029 1.15851223 36.13053797 -0.56089973 36.12584686 C-14.49928859 36.09614942 -27.42022035 36.10984104 -38.28515625 45.8984375 Z " fill="#58AEFF" transform="translate(231.09765625,37.6015625)"/>
<path d="M0 0 C31.68 0.495 31.68 0.495 64 1 C64 21.79 64 42.58 64 64 C42.88 64 21.76 64 0 64 C0 42.88 0 21.76 0 0 Z " fill="#46A0FF" transform="translate(224,273)"/>
</svg>
